0
SECTION
2
HEADER
9
$INSUNITS
70
4
9
$ACADVER
1
AC1014
9
$HANDSEED
5
FFFF
0
ENDSEC
0
SECTION
2
TABLES
0
TABLE
2
VPORT
5
8
100
AcDbSymbolTable
0
ENDTAB
0
TABLE
2
LTYPE
5
5
100
AcDbSymbolTable
0
LTYPE
5
14
100
AcDbSymbolTableRecord
100
AcDbLinetypeTableRecord
2
BYBLOCK
70
0
0
LTYPE
5
15
100
AcDbSymbolTableRecord
100
AcDbLinetypeTableRecord
2
BYLAYER
70
0
0
ENDTAB
0
TABLE
2
LAYER
5
2
100
AcDbSymbolTable
70
2
0
LAYER
5
50
100
AcDbSymbolTableRecord
100
AcDbLayerTableRecord
2
0
70
0
6
CONTINUOUS
0
ENDTAB
0
TABLE
2
STYLE
5
3
100
AcDbSymbolTable
70
1
0
STYLE
5
11
100
AcDbSymbolTableRecord
100
AcDbTextStyleTableRecord
2
STANDARD
70
0
0
ENDTAB
0
TABLE
2
VIEW
5
6
100
AcDbSymbolTable
70
0
0
ENDTAB
0
TABLE
2
UCS
5
7
100
AcDbSymbolTable
70
0
0
ENDTAB
0
TABLE
2
APPID
5
9
100
AcDbSymbolTable
70
2
0
APPID
5
12
100
AcDbSymbolTableRecord
100
AcDbRegAppTableRecord
2
ACAD
70
0
0
ENDTAB
0
TABLE
2
DIMSTYLE
5
A
100
AcDbSymbolTable
70
1
0
ENDTAB
0
TABLE
2
BLOCK_RECORD
5
1
100
AcDbSymbolTable
70
1
0
BLOCK_RECORD
5
1F
100
AcDbSymbolTableRecord
100
AcDbBlockTableRecord
2
*MODEL_SPACE
0
BLOCK_RECORD
5
1B
100
AcDbSymbolTableRecord
100
AcDbBlockTableRecord
2
*PAPER_SPACE
0
ENDTAB
0
ENDSEC
0
SECTION
2
BLOCKS
0
BLOCK
5
20
100
AcDbEntity
100
AcDbBlockBegin
2
*MODEL_SPACE
0
ENDBLK
5
21
100
AcDbEntity
100
AcDbBlockEnd
0
BLOCK
5
1C
100
AcDbEntity
100
AcDbBlockBegin
2
*PAPER_SPACE
0
ENDBLK
5
1D
100
AcDbEntity
100
AcDbBlockEnd
0
ENDSEC
0
SECTION
2
ENTITIES
0
LWPOLYLINE
5
100
100
AcDbEntity
8
0
100
AcDbPolyline
90
70
70
1
43
0.0
10
16.636038969321056
20
81.914213562373149
42
0.19891236737966178
10
15.221825406947973
20
82.500000000000028
10
-15.221825406947996
20
82.500000000000014
42
0.1989123673796647
10
-16.636038969321071
20
81.914213562373135
10
-17.964466094067316
20
80.585786437626936
42
-0.19891236737965798
10
-19.378679656440404
20
80.000000000000028
10
-22.757359312880702
20
80
42
0.19891236737965773
10
-24.878679656440347
20
79.121320343559645
10
-26.121320343559631
20
77.878679656440369
42
0.19891236737966125
10
-27
20
75.757359312880723
10
-26.999999999999993
20
61.24264068711927
42
-0.19891236737965917
10
-27.878679656440362
20
59.121320343559624
10
-29.121320343559638
20
57.87867965644034
42
-0.19891236737966064
10
-31.242640687119284
20
56.999999999999993
10
-39.757359312880688
20
57.000000000000014
42
0.19891236737965784
10
-41.878679656440326
20
56.12132034355966
10
-43.121320343559617
20
54.878679656440369
42
0.19891236737965856
10
-43.999999999999979
20
52.757359312880723
10
-43.999999999999986
20
8.7476701111476896
42
0.31529878887898477
10
-42.026060429977001
20
5.9285922487899612
10
-13.973939570022992
20
-4.2815447522713983
42
-0.31529878887898288
10
-12.000000000000004
20
-7.1006226146291205
10
-12.000000000000004
20
-35.757359312880716
42
-0.19891236737965823
10
-12.878679656440365
20
-37.878679656440362
10
-14.121320343559649
20
-39.121320343559645
42
-0.19891236737965995
10
-16.242640687119291
20
-40
10
-25.757359312880727
20
-39.999999999999993
42
0.19891236737965751
10
-27.878679656440365
20
-40.878679656440355
10
-29.121320343559645
20
-42.121320343559645
42
0.19891236737965726
10
-30.000000000000007
20
-44.242640687119277
10
-30.000000000000004
20
-52.899377385370855
42
0.31529878887898471
10
-28.026060429977001
20
-55.718455247728585
10
-16.759692390578309
20
-59.81907786235773
42
0.023254976716671958
10
-16.4934527842405
20
-59.902184059628937
42
-0.34105446767112246
10
-14.999999999999956
20
-61.836973432714892
10
-14.99999999999995
20
-74
42
0.4142135623730947
10
-12.99999999999995
20
-76
10
13.000000000000046
20
-76
42
0.4142135623730947
10
15.000000000000046
20
-74
10
15.000000000000052
20
-61.836973432714863
42
-0.34105446767111613
10
16.493452784240546
20
-59.902184059628922
42
0.023254976716665082
10
16.759692390578302
20
-59.81907786235773
10
28.026060429976994
20
-55.718455247728585
42
0.3152987888789876
10
30
20
-52.899377385370855
10
30
20
-44.242640687119284
42
0.19891236737965681
10
29.121320343559638
20
-42.121320343559638
10
27.878679656440355
20
-40.878679656440362
42
0.19891236737966125
10
25.757359312880723
20
-39.999999999999993
10
16.242640687119287
20
-40
42
-0.19891236737965753
10
14.121320343559647
20
-39.121320343559645
10
12.878679656440362
20
-37.878679656440362
42
-0.19891236737965812
10
12.000000000000002
20
-35.757359312880716
10
12.000000000000002
20
-7.100622614629124
42
-0.31529878887898322
10
13.973939570022992
20
-4.2815447522713983
10
42.026060429977001
20
5.9285922487899558
42
0.31529878887898444
10
43.999999999999979
20
8.7476701111476807
10
43.999999999999986
20
52.757359312880716
42
0.19891236737965487
10
43.121320343559624
20
54.878679656440362
10
41.87867965644034
20
56.121320343559653
42
0.19891236737965926
10
39.757359312880695
20
57
10
31.242640687119287
20
56.999999999999993
42
-0.19891236737965742
10
29.121320343559649
20
57.87867965644034
10
27.878679656440369
20
59.121320343559624
42
-0.19891236737965859
10
27.000000000000011
20
61.24264068711927
10
27.000000000000007
20
75.757359312880709
42
0.19891236737965676
10
26.121320343559642
20
77.878679656440369
10
24.878679656440358
20
79.121320343559645
42
0.19891236737965823
10
22.757359312880713
20
80
10
19.378679656440376
20
80.000000000000028
42
-0.1989123673796549
10
17.964466094067294
20
80.585786437626936
0
CIRCLE
5
101
100
AcDbEntity
8
0
100
AcDbCircle
10
-16.500000000000014
20
65.000000000000028
30
0
40
2.3999999999999999
210
-0
220
0
230
1
0
CIRCLE
5
102
100
AcDbEntity
8
0
100
AcDbCircle
10
-16.500000000000007
20
-3.4139358007223579e-15
30
0
40
2.3999999999999999
210
-0
220
0
230
1
0
CIRCLE
5
103
100
AcDbEntity
8
0
100
AcDbCircle
10
16.500000000000007
20
-4.3576253716537386e-15
30
0
40
2.3999999999999999
210
-0
220
0
230
1
0
CIRCLE
5
104
100
AcDbEntity
8
0
100
AcDbCircle
10
16.500000000000028
20
65.000000000000043
30
0
40
2.3999999999999999
210
-0
220
0
230
1
0
CIRCLE
5
105
100
AcDbEntity
8
0
100
AcDbCircle
10
-15.733631960601311
20
-57
30
0
40
1.1000000000000001
210
0
220
-0
230
1
0
CIRCLE
5
106
100
AcDbEntity
8
0
100
AcDbCircle
10
-22.757359312880702
20
77
30
0
40
1.1000000000000001
210
0
220
-0
230
1
0
CIRCLE
5
107
100
AcDbEntity
8
0
100
AcDbCircle
10
-27
20
4
30
0
40
1.1000000000000001
210
0
220
-0
230
1
0
CIRCLE
5
108
100
AcDbEntity
8
0
100
AcDbCircle
10
22.75735931288072
20
77
30
0
40
1.1000000000000001
210
0
220
-0
230
1
0
CIRCLE
5
109
100
AcDbEntity
8
0
100
AcDbCircle
10
27
20
4
30
0
40
1.1000000000000001
210
0
220
-0
230
1
0
CIRCLE
5
110
100
AcDbEntity
8
0
100
AcDbCircle
10
15.733631960601196
20
-56.999999999999815
30
0
40
1.1000000000000001
210
0
220
-0
230
1
0
ENDSEC
0
SECTION
2
OBJECTS
0
DICTIONARY
5
C
100
AcDbDictionary
3
ACAD_GROUP
350
D
3
ACAD_MLINESTYLE
350
17
0
DICTIONARY
5
D
100
AcDbDictionary
0
DICTIONARY
5
1A
330
C
100
AcDbDictionary
0
DICTIONARY
5
17
100
AcDbDictionary
0
ENDSEC
0
EOF
